<svg width="14" height="14" xmlns="http://www.w3.org/2000/svg" xmlns:svg="http://www.w3.org/2000/svg">
 <g class="layer">
  <title>Layer 1</title>
  <path clip-rule="evenodd" d="m7,3.36a1.68,1.68 0 1 0 0,-3.36a1.68,1.68 0 0 0 0,3.36m-2.64,2.43a2.8,2.8 0 0 1 5.28,0l-5.28,0zm-2.47,1.25a0.75,0.75 0 0 0 0.07,1.49l0.89,0l0.36,4.9a0.5,0.5 0 0 0 0.5,0.46l6.58,0a0.5,0.5 0 0 0 0.5,-0.46l0.36,-4.9l0.89,0a0.75,0.75 0 0 0 0.07,-1.49l-0.07,0l-10.08,0l-0.07,0z" fill="currentColor" fill-rule="evenodd" id="svg_1"/>
 </g>
</svg>