<?xml version="1.0"?>
<svg width="64" height="64" xmlns="http://www.w3.org/2000/svg" xmlns:svg="http://www.w3.org/2000/svg" preserveAspectRatio="xMidYMid meet" version="1.0">
 <g class="layer">
  <title>Layer 1</title>
  <g fill="#000000" id="svg_1" transform="matrix(0.0102061 0 0 -0.0102061 -0.795877 -0.795877)">
   <path d="m1087.18,-1638.17c-614,-614 -657,-687 -555,-930c72,-174 68,-175 353,109l256,256l965,-966l965,-965l6,305l5,305l-815,815l-816,816l390,390l390,390l-310,0l-310,0l-524,-525z" id="svg_2"/>
   <path d="m2247.38,-1496.77l-390,-390l685,-685l685,-685l605,605l605,605l-310,0l-310,0l-295,-295l-295,-295l-375,375l-375,375l161,161l161,160l428,0l427,0l102,-100l102,-101l309,0l310,0l-330,330l-330,330l-590,0l-590,0l-390,-390z" id="svg_3"/>
   <path d="m4601.18,-1503.17l390,-390l-816,-816l-815,-815l5,-305l6,-305l965,965l965,966l256,-256c285,-284 281,-283 353,-109c102,243 59,316 -555,930l-524,525l-310,0l-310,0l390,-390z" id="svg_4"/>
   <path d="m985.18,-2758.17c-79,-80 -144,-155 -144,-166c0,-10 535,-555 1190,-1209l1190,-1190l1190,1190c655,654 1190,1199 1190,1210c0,12 -68,88 -150,170l-150,149l-1040,-1039l-1040,-1040l-1035,1035c-569,569 -1040,1035 -1046,1035c-5,0 -75,-65 -155,-145z" id="svg_5"/>
  </g>
 </g>
</svg>