 <svg  version="1.0" xmlns="http://www.w3.org/2000/svg"  width="300.000000pt" height="300.000000pt" viewBox="0 0 300.000000 300.000000"  preserveAspectRatio="xMidYMid meet">  <g transform="translate(0.000000,300.000000) scale(0.050000,-0.050000)" fill="#ffffff" stroke="none"> <path d="M866 4575 c-614 -614 -657 -687 -555 -930 72 -174 68 -175 353 109 l256 256 965 -966 965 -965 6 305 5 305 -815 815 -816 816 390 390 390 390 -310 0 -310 0 -524 -525z"/> <path d="M2020 4710 l-390 -390 685 -685 685 -685 605 605 605 605 -310 0 -310 0 -295 -295 -295 -295 -375 375 -375 375 161 161 161 160 428 0 427 0 102 -100 102 -101 309 0 310 0 -330 330 -330 330 -590 0 -590 0 -390 -390z"/> <path d="M4380 4710 l390 -390 -816 -816 -815 -815 5 -305 6 -305 965 965 965 966 256 -256 c285 -284 281 -283 353 -109 102 243 59 316 -555 930 l-524 525 -310 0 -310 0 390 -390z"/> <path d="M764 3455 c-79 -80 -144 -155 -144 -166 0 -10 535 -555 1190 -1209 l1190 -1190 1190 1190 c655 654 1190 1199 1190 1210 0 12 -68 88 -150 170 l-150 149 -1040 -1039 -1040 -1040 -1035 1035 c-569 569 -1040 1035 -1046 1035 -5 0 -75 -65 -155 -145z"/> </g> </svg> 